<?xml version="1.0" encoding="iso-8859-1"?>
<!-- Generator: Adobe Illustrator 19.0.0, SVG Export Plug-In . SVG Version: 6.00 Build 0)  -->
<svg version="1.1" id="Capa_1" xmlns="http://www.w3.org/2000/svg" xmlns:xlink="http://www.w3.org/1999/xlink" x="0px" y="0px"
	 viewBox="0 0 469.333 469.333" style="enable-background:new 0 0 469.333 469.333;" xml:space="preserve">
<path style="fill:#303C42;" d="M384,384V234.667c0-82.344-67-149.333-149.333-149.333S85.333,152.323,85.333,234.667V384
	c-23.521,0-42.667,19.135-42.667,42.667v32c0,5.896,4.771,10.667,10.667,10.667H416c5.896,0,10.667-4.771,10.667-10.667v-32
	C426.667,403.135,407.521,384,384,384z"/>
<path style="fill:#F26722;" d="M106.667,234.667c0-70.583,57.417-128,128-128s128,57.417,128,128V384h-256V234.667z"/>
<g>
	<path style="opacity:0.1;fill:#FFFFFF;enable-background:new    ;" d="M234.667,106.667c-58.819,0-106.667,57.417-106.667,128V384
		h64V234.667C192,164.083,211.139,106.667,234.667,106.667z"/>
	<path style="opacity:0.05;fill:#FFFFFF;enable-background:new    ;" d="M234.667,106.667c23.527,0,42.667,57.417,42.667,128V384
		h85.333V234.667C362.667,164.083,305.25,106.667,234.667,106.667z"/>
</g>
<path style="opacity:0.1;enable-background:new    ;" d="M234.667,106.667c47.056,0,85.333,57.417,85.333,128V384h42.667V234.667
	C362.667,164.083,305.25,106.667,234.667,106.667z"/>
<path style="fill:#A4A7A9;" d="M405.333,448H64v-21.333c0-11.76,9.563-21.333,21.333-21.333H384
	c11.771,0,21.333,9.573,21.333,21.333V448z"/>
<path style="opacity:0.1;enable-background:new    ;" d="M386.836,405.908c4.815,5.6,7.831,12.794,7.831,20.759
	c0,5.891-4.776,10.667-10.667,10.667H64V448h341.333v-21.333C405.333,415.911,397.207,407.353,386.836,405.908z"/>
<path style="opacity:0.2;fill:#FFFFFF;enable-background:new    ;" d="M106.667,234.667V384h42.667V234.667
	c0-70.583,38.277-128,85.333-128C164.083,106.667,106.667,164.083,106.667,234.667z"/>
<g>
	<path style="fill:#303C42;" d="M405.333,234.667c0,5.896,4.771,10.667,10.667,10.667h42.667c5.896,0,10.667-4.771,10.667-10.667
		S464.563,224,458.667,224H416C410.104,224,405.333,228.771,405.333,234.667z"/>
	<path style="fill:#303C42;" d="M0,234.667c0,5.896,4.771,10.667,10.667,10.667h42.667c5.896,0,10.667-4.771,10.667-10.667
		S59.229,224,53.333,224H10.667C4.771,224,0,228.771,0,234.667z"/>
	<path style="fill:#303C42;" d="M382.468,149.333c2.948,5.106,9.465,6.852,14.571,3.904l36.95-21.333
		c5.106-2.948,6.852-9.465,3.904-14.571c-2.948-5.106-9.465-6.852-14.571-3.904l-36.95,21.333
		C381.267,137.71,379.52,144.227,382.468,149.333z"/>
	<path style="fill:#303C42;" d="M320,86.865c5.106,2.948,11.623,1.202,14.571-3.904l21.333-36.95
		c2.948-5.106,1.202-11.623-3.904-14.571s-11.623-1.202-14.571,3.904l-21.333,36.95C313.148,77.4,314.894,83.917,320,86.865z"/>
	<path style="fill:#303C42;" d="M234.667,64c5.896,0,10.667-4.771,10.667-10.667V10.667C245.333,4.771,240.563,0,234.667,0
		S224,4.771,224,10.667v42.667C224,59.229,228.771,64,234.667,64z"/>
	<path style="fill:#303C42;" d="M149.333,86.865c5.106-2.948,6.852-9.465,3.904-14.571l-21.333-36.95
		c-2.948-5.106-9.465-6.852-14.571-3.904s-6.852,9.465-3.904,14.571l21.333,36.95C137.71,88.067,144.227,89.813,149.333,86.865z"/>
	<path style="fill:#303C42;" d="M86.865,149.333c2.948-5.106,1.202-11.623-3.904-14.571l-36.95-21.333
		c-5.106-2.948-11.623-1.202-14.571,3.904s-1.202,11.623,3.904,14.571l36.95,21.333C77.4,156.186,83.917,154.439,86.865,149.333z"/>
</g>
<linearGradient id="SVGID_1_" gradientUnits="userSpaceOnUse" x1="-66.5293" y1="616.583" x2="-45.1393" y2="606.608" gradientTransform="matrix(21.3333 0 0 -21.3333 1430.1112 13315.2227)">
	<stop  offset="0" style="stop-color:#FFFFFF;stop-opacity:0.2"/>
	<stop  offset="1" style="stop-color:#FFFFFF;stop-opacity:0"/>
</linearGradient>
<path style="fill:url(#SVGID_1_);" d="M384,384V234.667c0-82.344-67-149.333-149.333-149.333S85.333,152.323,85.333,234.667V384
	c-23.521,0-42.667,19.135-42.667,42.667v32c0,5.896,4.771,10.667,10.667,10.667H416c5.896,0,10.667-4.771,10.667-10.667v-32
	C426.667,403.135,407.521,384,384,384z M320,86.865c5.105,2.948,11.622,1.202,14.57-3.904l21.333-36.951
	c2.948-5.107,1.202-11.624-3.904-14.572s-11.622-1.202-14.57,3.905l-21.333,36.951C313.148,77.4,314.895,83.917,320,86.865z
	 M134.763,82.961c2.948,5.105,9.465,6.852,14.57,3.904s6.852-9.465,3.904-14.57l-21.333-36.951
	c-2.948-5.107-9.465-6.853-14.57-3.905s-6.852,9.465-3.904,14.572L134.763,82.961z M397.039,153.237l36.951-21.333
	c5.105-2.948,6.853-9.465,3.905-14.57c-2.948-5.107-9.466-6.853-14.572-3.905l-36.951,21.333c-5.105,2.948-6.852,9.465-3.904,14.572
	C385.417,154.439,391.934,156.185,397.039,153.237z M234.667,64c5.896,0,10.667-4.771,10.667-10.667V10.667
	C245.333,4.771,240.563,0,234.667,0S224,4.771,224,10.667v42.667C224,59.229,228.771,64,234.667,64z M35.344,131.904l36.951,21.333
	c5.105,2.948,11.622,1.202,14.57-3.904c2.948-5.107,1.202-11.624-3.904-14.572L46.01,113.428
	c-5.105-2.948-11.624-1.202-14.572,3.905C28.491,122.439,30.238,128.956,35.344,131.904z M458.667,224H416
	c-5.896,0-10.667,4.771-10.667,10.667s4.771,10.667,10.667,10.667h42.667c5.896,0,10.667-4.771,10.667-10.667
	S464.563,224,458.667,224z M64,234.667C64,228.771,59.229,224,53.333,224H10.667C4.771,224,0,228.771,0,234.667
	s4.771,10.667,10.667,10.667h42.667C59.229,245.333,64,240.563,64,234.667z"/>
<g>
</g>
<g>
</g>
<g>
</g>
<g>
</g>
<g>
</g>
<g>
</g>
<g>
</g>
<g>
</g>
<g>
</g>
<g>
</g>
<g>
</g>
<g>
</g>
<g>
</g>
<g>
</g>
<g>
</g>
</svg>
