<?xml version="1.0" encoding="iso-8859-1"?>
<!-- Generator: Adobe Illustrator 19.0.0, SVG Export Plug-In . SVG Version: 6.00 Build 0)  -->
<svg version="1.1" id="Capa_1" xmlns="http://www.w3.org/2000/svg" xmlns:xlink="http://www.w3.org/1999/xlink" x="0px" y="0px"
	 viewBox="0 0 512.002 512.002" style="enable-background:new 0 0 512.002 512.002;" xml:space="preserve">
<g>
	<polygon style="fill:#FF3855;" points="256.001,250.286 116.001,331.115 116.001,502.002 396.001,502.002 396.001,331.115 	"/>
	<path style="fill:#DBD8DB;" d="M116.001,331.115l140-80.829l140,80.829V142.002h-20h-20c0,22-18,40-40,40h-120c-22,0-40-18-40-40
		h-20h-20C116.001,142.002,116.001,331.115,116.001,331.115z"/>
	<path style="fill:#737481;" d="M196.001,182.002h120c22,0,40-18,40-40h-28h-48h-48h-48h-28
		C156.001,164.002,174.001,182.002,196.001,182.002z"/>
	<g>
		<polygon style="fill:#FF9822;" points="184.001,142.002 184.001,76.002 184.001,10 136.001,10 136.001,142.002 156.001,142.002 		
			"/>
		<polygon style="fill:#FF9822;" points="184.001,76.002 184.001,142.002 232.001,142.002 232.001,99.564 232.001,76.002 		"/>
		<rect x="232" y="99.56" style="fill:#FF9822;" width="48" height="42.44"/>
		<polygon style="fill:#FF9822;" points="280.001,99.564 280.001,142.002 328.001,142.002 328.001,76.002 280.001,76.002 		"/>
		<polygon style="fill:#FF9822;" points="328.001,76.002 328.001,142.002 356.001,142.002 376.001,142.002 376.001,76.002 		"/>
	</g>
</g>
<path d="M396.001,132.002h-10v-56c0-5.523-4.478-10-10-10l0,0h-96c-5.523,0-10,4.477-10,10v13.563h-28V76.002
	c0-5.523-4.477-10-10-10h-38V10c0-5.523-4.477-10-10-10h-48c-5.523,0-10,4.477-10,10v122.002h-10c-5.523,0-10,4.477-10,10v360
	c0,5.523,4.477,10,10,10h280c5.522,0,10-4.477,10-10v-360C406.001,136.479,401.523,132.002,396.001,132.002z M366.001,132.002
	L366.001,132.002h-28v-46h28V132.002z M167.721,152.002H344.28c-4.127,11.639-15.243,20-28.279,20h-120
	C182.965,172.002,171.849,163.641,167.721,152.002 M290.001,86.002h28v46h-28V86.002L290.001,86.002z M270.001,109.564v22.438h-28
	v-22.438C242.001,109.564,270.001,109.564,270.001,109.564z M222.001,86.002L222.001,86.002v46h-28v-46H222.001z M146.001,20h28l0,0
	v112.002h-28l0,0V20z M147.005,152.002L147.005,152.002c4.647,22.794,24.85,40,48.996,40h120c24.146,0,44.35-17.206,48.995-40
	h21.005l0,0v161.792l-125-72.169c-0.077-0.044-0.156-0.078-0.234-0.12c-0.18-0.097-0.359-0.192-0.544-0.278
	c-0.14-0.065-0.28-0.123-0.421-0.181c-0.152-0.063-0.305-0.125-0.461-0.18c-0.169-0.061-0.339-0.112-0.51-0.163
	c-0.134-0.04-0.268-0.079-0.403-0.113c-0.184-0.046-0.367-0.085-0.552-0.12c-0.132-0.025-0.265-0.05-0.398-0.069
	c-0.181-0.027-0.362-0.048-0.543-0.065c-0.147-0.014-0.293-0.025-0.44-0.033c-0.164-0.008-0.328-0.011-0.492-0.011
	c-0.167-0.001-0.334,0.003-0.502,0.011c-0.144,0.007-0.287,0.019-0.43,0.032c-0.184,0.017-0.367,0.038-0.551,0.065
	c-0.131,0.02-0.26,0.043-0.39,0.068c-0.188,0.036-0.374,0.075-0.561,0.122c-0.132,0.033-0.263,0.071-0.394,0.109
	c-0.174,0.052-0.347,0.105-0.519,0.166c-0.152,0.054-0.301,0.115-0.45,0.176c-0.144,0.06-0.288,0.118-0.431,0.185
	c-0.18,0.084-0.355,0.177-0.531,0.272c-0.08,0.044-0.164,0.079-0.244,0.125l-125,72.169v-161.79H147.005z M126.001,492.002V336.888
	l130-75.056l130,75.056v155.114H126.001z"/>
<path d="M221.236,451.815H221c-5.523,0-10,4.477-10,10s4.477,10,10,10h0.236c5.523,0,10-4.477,10-10
	C231.236,456.293,226.759,451.815,221.236,451.815z"/>
<path d="M291.001,451.814h-41.034c-5.523,0-10,4.477-10,10s4.477,10,10,10h41.034c5.522,0,10-4.477,10-10
	S296.523,451.814,291.001,451.814z"/>
<g>
</g>
<g>
</g>
<g>
</g>
<g>
</g>
<g>
</g>
<g>
</g>
<g>
</g>
<g>
</g>
<g>
</g>
<g>
</g>
<g>
</g>
<g>
</g>
<g>
</g>
<g>
</g>
<g>
</g>
</svg>
