<?xml version="1.0" encoding="UTF-8" standalone="no"?>
<!-- Generator: Adobe Illustrator 19.0.0, SVG Export Plug-In . SVG Version: 6.00 Build 0)  -->

<svg
   xmlns:dc="http://purl.org/dc/elements/1.1/"
   xmlns:cc="http://creativecommons.org/ns#"
   xmlns:rdf="http://www.w3.org/1999/02/22-rdf-syntax-ns#"
   xmlns:svg="http://www.w3.org/2000/svg"
   xmlns="http://www.w3.org/2000/svg"
   xmlns:sodipodi="http://sodipodi.sourceforge.net/DTD/sodipodi-0.dtd"
   xmlns:inkscape="http://www.inkscape.org/namespaces/inkscape"
   version="1.1"
   id="Capa_1"
   x="0px"
   y="0px"
   viewBox="0 0 255.41154 497.46487"
   xml:space="preserve"
   inkscape:version="0.91 r13725"
   sodipodi:docname="elevator.svg"
   width="255.41154"
   height="497.46487"><metadata
     id="metadata57"><rdf:RDF><cc:Work
         rdf:about=""><dc:format>image/svg+xml</dc:format><dc:type
           rdf:resource="http://purl.org/dc/dcmitype/StillImage" /><dc:title></dc:title></cc:Work></rdf:RDF></metadata><defs
     id="defs55" /><sodipodi:namedview
     pagecolor="#ffffff"
     bordercolor="#666666"
     borderopacity="1"
     objecttolerance="10"
     gridtolerance="10"
     guidetolerance="10"
     inkscape:pageopacity="0"
     inkscape:pageshadow="2"
     inkscape:window-width="1855"
     inkscape:window-height="1056"
     id="namedview53"
     showgrid="false"
     fit-margin-top="0"
     fit-margin-left="0"
     fit-margin-right="0"
     fit-margin-bottom="0"
     inkscape:zoom="1.1745749"
     inkscape:cx="190.64353"
     inkscape:cy="63.624348"
     inkscape:window-x="65"
     inkscape:window-y="24"
     inkscape:window-maximized="1"
     inkscape:current-layer="Capa_1" /><g
     id="g3"
     transform="matrix(-0.76961528,0.2971975,0,1,326.07193,-85.41423)"><path
       style="fill:#a0c7e7"
       d="M 203.90306,27.526616 92.517332,87.760691 93.513974,383.56534 299.97172,493.72826 l 123.71,-71.472 -3.98657,-294.14902 z"
       id="polygon5"
       inkscape:connector-curvature="0"
       sodipodi:nodetypes="ccccccc" /><path
       style="fill:#687492"
       d="m 299.47341,493.87636 -2.49161,-297.72944 123.71,-71.404 0,299.936 z"
       id="polygon7"
       inkscape:connector-curvature="0"
       sodipodi:nodetypes="ccccc" /><path
       style="fill:#98a9d5"
       d="m 91.8126,89.728856 111.38572,-64.704659 218.49012,101.723623 -123.71,71.404 z"
       id="polygon9"
       inkscape:connector-curvature="0"
       sodipodi:nodetypes="ccccc" /><path
       style="fill:#687492"
       d="m 203.161,200.222 -45.092,-26.033 c -5.313,-3.449 -8.663,-9.226 -9.018,-15.551 0,-5.713 4.038,-8.013 9.018,-5.137 l 45.091,26.033 c 5.313,3.449 8.663,9.226 9.018,15.551 0.001,5.713 -4.036,8.013 -9.017,5.137 z"
       id="path11"
       inkscape:connector-curvature="0" /><path
       style="fill:#98a9d5"
       d="m 126.92344,169.58757 53.69456,30.11006 0,233.66837 -53.69456,-30.11706 z"
       id="polygon13"
       inkscape:connector-curvature="0"
       sodipodi:nodetypes="ccccc" /><g
       id="g15"><path
         style="fill:#687492"
         d="m 286.97859,323.4058 c -2.469,0.002 -4.753,-1.311 -5.993,-3.446 l -5.574,-9.615 -3.054,1.744 c -3.321,1.892 -7.547,0.733 -9.439,-2.588 -1.892,-3.321 -0.733,-7.547 2.588,-9.439 l 9.02,-5.142 c 3.303,-1.879 7.503,-0.745 9.412,2.541 l 9.02,15.554 c 1.243,2.14 1.248,4.78 0.014,6.925 -1.234,2.143 -3.52,3.466 -5.994,3.466 z"
         id="path17"
         inkscape:connector-curvature="0"
         sodipodi:nodetypes="ccccscccccc" /><path
         style="fill:#687492"
         d="m 277.95859,359.5748 c -2.469,0.002 -4.753,-1.311 -5.993,-3.446 l -9.02,-15.554 c -1.904,-3.305 -0.775,-7.527 2.524,-9.441 3.299,-1.914 7.525,-0.798 9.449,2.495 l 5.574,9.622 3.054,-1.743 c 3.321,-1.892 7.547,-0.733 9.439,2.588 1.892,3.321 0.733,7.547 -2.588,9.439 l -9.02,5.135 c -1.042,0.594 -2.22,0.906 -3.419,0.905 z"
         id="path19"
         inkscape:connector-curvature="0"
         sodipodi:nodetypes="cccscccsccc" /><path
         style="fill:#687492"
         d="m 180.618,199.69763 76.24,44.026 -0.99664,225.90374 L 180.618,433.366 Z"
         id="polygon21"
         inkscape:connector-curvature="0"
         sodipodi:nodetypes="ccccc" /></g></g><g
     id="g23"
     transform="translate(-84.644504,-9.3316697)" /><g
     id="g25"
     transform="translate(-84.644504,-9.3316697)" /><g
     id="g27"
     transform="translate(-84.644504,-9.3316697)" /><g
     id="g29"
     transform="translate(-84.644504,-9.3316697)" /><g
     id="g31"
     transform="translate(-84.644504,-9.3316697)" /><g
     id="g33"
     transform="translate(-84.644504,-9.3316697)" /><g
     id="g35"
     transform="translate(-84.644504,-9.3316697)" /><g
     id="g37"
     transform="translate(-84.644504,-9.3316697)" /><g
     id="g39"
     transform="translate(-84.644504,-9.3316697)" /><g
     id="g41"
     transform="translate(-84.644504,-9.3316697)" /><g
     id="g43"
     transform="translate(-84.644504,-9.3316697)" /><g
     id="g45"
     transform="translate(-84.644504,-9.3316697)" /><g
     id="g47"
     transform="translate(-84.644504,-9.3316697)" /><g
     id="g49"
     transform="translate(-84.644504,-9.3316697)" /><g
     id="g51"
     transform="translate(-84.644504,-9.3316697)" /></svg>