<?xml version="1.0" encoding="UTF-8" standalone="no"?>
<!-- Generator: Adobe Illustrator 19.0.0, SVG Export Plug-In . SVG Version: 6.00 Build 0)  -->

<svg
   xmlns:dc="http://purl.org/dc/elements/1.1/"
   xmlns:cc="http://creativecommons.org/ns#"
   xmlns:rdf="http://www.w3.org/1999/02/22-rdf-syntax-ns#"
   xmlns:svg="http://www.w3.org/2000/svg"
   xmlns="http://www.w3.org/2000/svg"
   xmlns:sodipodi="http://sodipodi.sourceforge.net/DTD/sodipodi-0.dtd"
   xmlns:inkscape="http://www.inkscape.org/namespaces/inkscape"
   version="1.1"
   id="Capa_1"
   x="0px"
   y="0px"
   viewBox="0 0 58 58"
   style="enable-background:new 0 0 58 58;"
   xml:space="preserve"
   inkscape:version="0.91 r13725"
   sodipodi:docname="starkey.svg"><metadata
     id="metadata39"><rdf:RDF><cc:Work
         rdf:about=""><dc:format>image/svg+xml</dc:format><dc:type
           rdf:resource="http://purl.org/dc/dcmitype/StillImage" /><dc:title></dc:title></cc:Work></rdf:RDF></metadata><defs
     id="defs37" /><sodipodi:namedview
     pagecolor="#ffffff"
     bordercolor="#666666"
     borderopacity="1"
     objecttolerance="10"
     gridtolerance="10"
     guidetolerance="10"
     inkscape:pageopacity="0"
     inkscape:pageshadow="2"
     inkscape:window-width="1855"
     inkscape:window-height="1056"
     id="namedview35"
     showgrid="false"
     inkscape:zoom="8.137931"
     inkscape:cx="46.184966"
     inkscape:cy="32.880922"
     inkscape:window-x="65"
     inkscape:window-y="24"
     inkscape:window-maximized="1"
     inkscape:current-layer="Capa_1" /><path
     style="fill:#d8a852"
     d="M 29.806067,2.7419387 26.986274,15.585359 16.440549,21.431402 26.441,25.731 0.586,51.586 c -0.781,0.781 -0.781,2.047 0,2.828 C 0.977,54.805 1.488,55 2,55 2.512,55 3.023,54.805 3.414,54.414 L 7,50.828 13.586,57.414 C 13.977,57.805 14.488,58 15,58 c 0.512,0 1.023,-0.195 1.414,-0.586 0.781,-0.781 0.781,-2.047 0,-2.828 L 9.828,48 12,45.828 16.586,50.414 C 16.977,50.805 17.488,51 18,51 c 0.512,0 1.023,-0.195 1.414,-0.586 0.781,-0.781 0.781,-2.047 0,-2.828 L 14.828,43 17,40.828 23.586,47.414 C 23.977,47.805 24.488,48 25,48 c 0.512,0 1.023,-0.195 1.414,-0.586 0.781,-0.781 0.781,-2.047 0,-2.828 L 19.828,38 28.903,28.925 31.615854,40.082317 39.317839,29.378814 49.45275,32.230189 44.866129,20.408372 50.458015,8.9042998 38.636194,11.471702 Z m 3.16404,30.3228613 -1.00611,-8.808767 -8.325975,-3.265257 6.175502,-2.578167 1.838321,-9.3122835 5.713091,5.9650295 7.139328,-2.10703 -3.312431,7.339776 3.401758,7.036938 -6.07497,-2.844426 z"
     id="path3"
     inkscape:connector-curvature="0"
     sodipodi:nodetypes="ccccsssscssssccssssccsssscccccccccccccccccccc" /><g
     id="g5" /><g
     id="g7" /><g
     id="g9" /><g
     id="g11" /><g
     id="g13" /><g
     id="g15" /><g
     id="g17" /><g
     id="g19" /><g
     id="g21" /><g
     id="g23" /><g
     id="g25" /><g
     id="g27" /><g
     id="g29" /><g
     id="g31" /><g
     id="g33" /></svg>