<?xml version="1.0" encoding="iso-8859-1"?>
<!-- Generator: Adobe Illustrator 19.0.0, SVG Export Plug-In . SVG Version: 6.00 Build 0)  -->
<svg xmlns="http://www.w3.org/2000/svg" xmlns:xlink="http://www.w3.org/1999/xlink" version="1.1" id="Capa_1" x="0px" y="0px" viewBox="0 0 512 512" style="enable-background:new 0 0 512 512;" xml:space="preserve" width="512px" height="512px">
<g>
	<g>
		<path d="M511.637,202.631c-10.575-46.239-52.108-80.882-100.312-80.882c-7.53,0-9.506,0.622-13.467,0.98    c24.225,25.765,40.448,56.677,47.994,89.949c15.342,1.214,31.648,3.232,46.786,7C503.43,222.366,514.118,213.474,511.637,202.631z    " fill="#91DC5A"/>
	</g>
</g>
<g>
	<g>
		<path d="M423.687,356.432l-0.183-0.048c-16.41,27.307-39.529,50.44-66.806,66.894l67.963,54.388    c9.051,7.242,22.659,1.927,24.465-9.523C455.236,429.38,446.312,389.051,423.687,356.432z" fill="#91DC5A"/>
	</g>
</g>
<g>
	<g>
		<path d="M256.028,450.944c-14.169,0-28.068-1.633-41.594-4.563l28.149,57.299c5.528,11.056,21.304,11.056,26.832,0.002    l28.266-57.521C283.869,449.067,269.931,450.944,256.028,450.944z" fill="#91DC5A"/>
	</g>
</g>
<g>
	<g>
		<path d="M118.172,393.8c-11.452-11.451-21.059-24.131-29.16-37.547l-0.701,0.179c-22.625,32.618-31.549,72.947-25.439,111.711    c1.805,11.45,15.414,16.765,24.465,9.523l68.37-54.716C142.247,414.826,129.574,405.211,118.172,393.8z" fill="#91DC5A"/>
	</g>
</g>
<g>
	<g>
		<path d="M30.986,149.185C15.611,163.601,5.003,182.333,0.362,202.63c-2.481,10.844,8.207,19.735,18.999,17.047    c15.126-3.766,31.421-5.784,46.753-6.998c0.654-3,0.99-6.005,1.784-9.001c8.101-30.494,24.302-58.185,45.687-81.01    C82.246,119.912,54.38,127.21,30.986,149.185z" fill="#91DC5A"/>
	</g>
</g>
<g>
	<g>
		<path d="M243.504,0.984c-34.464,5.627-60.513,37.918-62.186,74.535c24.511-10.037,50.177-14.517,74.667-14.517    c26.173,0,51.552,5.145,75.009,14.929C330.97,30.076,290.182-6.413,243.504,0.984z" fill="#91DC5A"/>
	</g>
</g>
<g>
	<g>
		<path d="M195.611,102.258c-27.737,10.692-52.238,28.991-70.395,52.386c1.287,2.822,2.747,5.579,4.631,8.121    c8.583,11.572,21.767,18.208,36.152,18.208c24.814,0,45-20.186,45-45C210.999,122.969,205.345,110.812,195.611,102.258z" fill="#91DC5A"/>
	</g>
</g>
<g>
	<g>
		<path d="M372.615,139.357c-16.432-16.443-35.656-28.751-56.422-36.898c-9.602,8.546-15.194,20.603-15.194,33.514    c0,18.486,11.587,35.361,28.828,42.012c19.415,7.513,40.922,0.485,59.835-18.289C384.519,152.588,378.969,145.71,372.615,139.357z    " fill="#91DC5A"/>
	</g>
</g>
<g>
	<g>
		<path d="M405.181,186.212c-24.61,21.57-55.247,31.664-86.15,19.766c-28.726-11.074-48.032-39.214-48.032-70.005    c0-15.35,4.946-29.879,13.416-42.22c-18.497-3.212-37.636-3.314-56.882-0.082c8.505,12.359,13.466,26.919,13.466,42.302    c0,41.353-33.647,75-75,75c-22.562,0-43.909-10.56-58.077-28.035c-4.475,9.126-8.394,18.536-11.019,28.431    c-2.617,9.864-4.023,19.748-4.891,29.604h121.75c6.213-17.422,22.707-30,42.237-30c19.53,0,36.024,12.578,42.237,30h121.769    C418.28,221.886,413.261,203.449,405.181,186.212z" fill="#91DC5A"/>
	</g>
</g>
<g>
	<g>
		<path d="M255.999,240.973c-8.276,0-15,6.724-15,15c0,8.276,6.724,15,15,15c8.276,0,15-6.723,15-15    C270.999,247.697,264.275,240.973,255.999,240.973z" fill="#91DC5A"/>
	</g>
</g>
<g>
	<g>
		<path d="M345.999,330.973c-24.814,0-45,20.186-45,45c0,13.528,6.387,25.248,15.93,33.53c27.404-10.678,51.594-28.82,69.611-51.928    C379.304,341.654,363.815,330.973,345.999,330.973z" fill="#91DC5A"/>
	</g>
</g>
<g>
	<g>
		<path d="M298.237,270.974c-6.213,17.422-22.707,30-42.237,30c-19.53,0-36.024-12.578-42.237-30H91.993    c1.816,20.109,7.308,39.494,16.168,57.508c13.953-16.992,34.876-27.508,57.838-27.508c41.353,0,75,33.647,75,75    c0,15.5-4.834,30.068-13.134,42.237c9.26,1.591,18.633,2.734,28.163,2.734c9.364,0,18.821-1.075,28.286-2.655    c-8.305-12.112-13.315-26.614-13.315-42.317c0-41.353,33.647-75,75-75c23.132,0,44.209,10.659,58.158,27.876    c4.438-9.078,8.328-18.435,10.939-28.271c2.617-9.864,4.023-19.748,4.891-29.604H298.237z" fill="#91DC5A"/>
	</g>
</g>
<g>
	<g>
		<path d="M165.999,330.973c-17.606,0-32.906,10.453-40.258,26.054c4.206,5.398,8.707,10.627,13.641,15.562    c16.373,16.381,35.544,28.577,56.223,36.724c9.393-8.351,15.394-20.171,15.394-33.34    C210.999,351.159,190.813,330.973,165.999,330.973z" fill="#91DC5A"/>
	</g>
</g>
<g>
</g>
<g>
</g>
<g>
</g>
<g>
</g>
<g>
</g>
<g>
</g>
<g>
</g>
<g>
</g>
<g>
</g>
<g>
</g>
<g>
</g>
<g>
</g>
<g>
</g>
<g>
</g>
<g>
</g>
</svg>
