<?xml version="1.0" encoding="iso-8859-1"?>
<!-- Generator: Adobe Illustrator 19.0.0, SVG Export Plug-In . SVG Version: 6.00 Build 0)  -->
<svg version="1.1" id="Capa_1" xmlns="http://www.w3.org/2000/svg" xmlns:xlink="http://www.w3.org/1999/xlink" x="0px" y="0px"
	 viewBox="0 0 512 512" style="enable-background:new 0 0 512 512;" xml:space="preserve">
<rect x="28.22" style="fill:#CAE8F9;" width="455.56" height="400.33"/>
<rect x="256" style="fill:#A3D9F6;" width="227.78" height="400.33"/>
<g>
	<rect x="241.2" y="153.34" style="fill:#B15C49;" width="30" height="104.47"/>
	<rect x="241.2" y="45.25" style="fill:#B15C49;" width="30" height="40.76"/>
</g>
<g>
	<rect x="256" y="45.25" style="fill:#8E4231;" width="15.2" height="40.76"/>
	<rect x="256" y="153.34" style="fill:#8E4231;" width="15.2" height="104.47"/>
</g>
<path style="fill:#FFA92F;" d="M358.84,210.107l-9.09,9.09l-10.38-7.59c-0.65-0.47-65.68-47.58-112.55-47.58h-15v-88.71h15
	c46.87,0,111.9-47.1,112.56-47.58l10.37-7.57l9.09,9.07c28.32,28.33,41.89,58.75,40.34,90.44c0.05,0.98,0.08,1.96,0.1,2.94
	C399.88,153.247,386.28,182.667,358.84,210.107z"/>
<path style="fill:#FF912A;" d="M358.84,210.107l-9.09,9.09l-10.38-7.59c-0.65-0.47-65.68-47.58-112.55-47.58h-15v-41.41h187.46
	C399.88,153.247,386.28,182.667,358.84,210.107z"/>
<path style="fill:#FFDBA9;" d="M358.84,210.107l-9.09,9.09l-10.38-7.59c-0.17-0.12-4.38-3.17-11.34-7.69
	c20.48-29.65,27.63-57.47,28.11-81.3c0.33-15.89-2.3-30.01-5.93-41.73c-6.13-19.8-15.85-35.26-23.07-44.89
	c7.5-4.82,12.07-8.13,12.24-8.26l10.37-7.57l9.09,9.07c28.32,28.33,41.89,58.75,40.34,90.44c0.05,0.98,0.08,1.96,0.1,2.94
	C399.88,153.247,386.28,182.667,358.84,210.107z"/>
<path style="fill:#FFBE70;" d="M358.84,210.107l-9.09,9.09l-10.38-7.59c-0.17-0.12-4.38-3.17-11.34-7.69
	c20.48-29.65,27.63-57.47,28.11-81.3h43.14C399.88,153.247,386.28,182.667,358.84,210.107z"/>
<rect x="230.31" y="235.13" style="fill:#8E4231;" width="51.78" height="87.37"/>
<rect x="256" y="235.13" style="fill:#75362C;" width="26.09" height="87.37"/>
<rect x="117.63" y="316" style="fill:#F1966C;" width="276.74" height="84.33"/>
<rect x="256" y="316" style="fill:#EB854F;" width="138.37" height="84.33"/>
<rect y="385.33" style="fill:#B15C49;" width="512" height="126.67"/>
<rect x="256" y="385.33" style="fill:#8E4231;" width="256" height="126.67"/>
<rect x="190.83" y="435" style="fill:#FFDBA9;" width="130.34" height="30"/>
<rect x="256" y="435" style="fill:#FFBE70;" width="65.17" height="30"/>
<g>
</g>
<g>
</g>
<g>
</g>
<g>
</g>
<g>
</g>
<g>
</g>
<g>
</g>
<g>
</g>
<g>
</g>
<g>
</g>
<g>
</g>
<g>
</g>
<g>
</g>
<g>
</g>
<g>
</g>
</svg>
