<?xml version="1.0" encoding="iso-8859-1"?>
<!-- Generator: Adobe Illustrator 19.0.0, SVG Export Plug-In . SVG Version: 6.00 Build 0)  -->
<svg version="1.1" id="Capa_1" xmlns="http://www.w3.org/2000/svg" xmlns:xlink="http://www.w3.org/1999/xlink" x="0px" y="0px"
	 viewBox="0 0 512 512" style="enable-background:new 0 0 512 512;" xml:space="preserve">
<path style="fill:#E1E4FB;" d="M180.94,480.555c-2.842,2.842-6.689,4.44-10.714,4.44c-4.025,0-7.873-1.598-10.714-4.44
	L30.99,352.035c-2.842-2.842-4.44-6.689-4.44-10.714c0-4.025,1.598-7.873,4.44-10.714L331.067,30.543
	c2.842-2.842,6.689-4.44,10.714-4.44c0,0,0,0,0.029,0c4.025,0,7.873,1.613,10.714,4.47l128.431,128.46
	c2.871,2.842,4.47,6.704,4.47,10.73c0,4.025-1.598,7.889-4.44,10.73L180.94,480.555z"/>
<g>
	<path style="fill:#C5C9F7;" d="M485.427,169.763c0-4.025-1.598-7.889-4.47-10.73l-64.223-64.238L95.243,416.287l64.267,64.267
		c2.842,2.842,6.689,4.44,10.714,4.44s7.873-1.598,10.714-4.44l300.047-300.062C483.829,177.651,485.427,173.788,485.427,169.763z"
		/>
	<path style="fill:#C5C9F7;" d="M128.164,430.325c-11.633,0-23.265-4.41-32.144-13.26c-5.919-5.919-5.919-15.51,0-21.445
		c5.919-5.919,15.51-5.905,21.43-0.015c5.919,5.919,15.51,5.919,21.43,0c5.919-5.905,5.919-15.51,0-21.43
		c-8.584-8.569-13.32-19.994-13.32-32.144c0-12.136,4.736-23.561,13.32-32.144c17.701-17.73,46.589-17.73,64.29,0
		c5.919,5.919,15.51,5.919,21.43,0c2.871-2.871,4.44-6.674,4.44-10.714c0-4.04-1.569-7.844-4.44-10.714
		c-17.73-17.73-17.73-46.575,0-64.304c17.701-17.701,46.53-17.686,64.29-0.015c5.712,5.712,15.687,5.728,21.459,0.015
		c5.89-5.905,5.89-15.525,0-21.445c-17.73-17.715-17.73-46.544,0-64.275c8.554-8.584,19.95-13.305,32.115-13.32c0,0,0,0,0.029,0
		c12.136,0,23.561,4.736,32.144,13.32c5.919,5.919,15.51,5.919,21.43,0c5.919-5.919,5.919-15.525,0-21.445
		c-5.919-5.92-5.919-15.51,0-21.43c5.919-5.919,15.51-5.919,21.43,0c17.73,17.73,17.73,46.575,0,64.304
		c-17.167,17.167-47.122,17.167-64.29,0c-2.871-2.856-6.66-4.44-10.714-4.44h-0.029c-4.025,0-7.814,1.569-10.685,4.425
		c-2.871,2.885-4.44,6.689-4.44,10.73c0,4.04,1.569,7.844,4.44,10.714c17.701,17.744,17.701,46.575,0,64.29
		c-17.701,17.686-46.56,17.744-64.319,0c-5.919-5.89-15.51-5.905-21.43,0.015c-2.871,2.856-4.44,6.66-4.44,10.7
		c0,4.055,1.569,7.858,4.44,10.73c17.73,17.73,17.73,46.56,0,64.29c-17.701,17.73-46.589,17.73-64.29,0
		c-5.919-5.919-15.51-5.919-21.43,0c-2.871,2.871-4.44,6.674-4.44,10.714c0,4.055,1.569,7.844,4.44,10.7
		c8.584,8.599,13.32,20.024,13.32,32.175c0,12.136-4.736,23.561-13.32,32.144C151.459,425.899,139.797,430.325,128.164,430.325z"/>
</g>
<g>
	<path style="fill:#A8AFF1;" d="M181.739,331.315c17.701,17.73,46.589,17.73,64.29,0c17.73-17.73,17.73-46.56,0-64.29
		c-0.267-0.267-0.37-0.63-0.614-0.912l-21.423,21.426c0.259,0.276,0.336,0.646,0.607,0.915c2.871,2.871,4.44,6.674,4.44,10.714
		c0,4.04-1.569,7.844-4.44,10.714c-5.919,5.919-15.51,5.919-21.43,0c-0.27-0.27-0.641-0.346-0.917-0.608l-21.43,21.43
		C181.11,330.953,181.468,331.046,181.739,331.315z"/>
	<path style="fill:#A8AFF1;" d="M267.459,245.581c17.759,17.744,46.619,17.686,64.319,0c17.701-17.715,17.701-46.544,0-64.29
		c-0.267-0.269-0.37-0.637-0.618-0.921l-21.419,21.421c0.259,0.276,0.336,0.646,0.607,0.915c5.89,5.919,5.89,15.54,0,21.445
		c-5.772,5.712-15.747,5.698-21.459-0.015c-0.267-0.265-0.629-0.336-0.903-0.594l-21.437,21.437
		C266.833,245.222,267.192,245.315,267.459,245.581z"/>
	<path style="fill:#A8AFF1;" d="M353.208,159.862c17.167,17.167,47.122,17.167,64.29,0c17.73-17.73,17.73-46.575,0-64.304l0,0
		c-0.27-0.27-0.629-0.363-0.917-0.608l-21.119,21.123c0.245,0.285,0.336,0.646,0.607,0.915c5.919,5.919,5.919,15.525,0,21.445
		c-5.919,5.92-15.51,5.919-21.43,0c-0.259-0.261-0.577-0.441-0.844-0.694l-21.508,21.506
		C352.571,159.49,352.937,159.593,353.208,159.862z"/>
	<path style="fill:#A8AFF1;" d="M160.309,417.049c8.584-8.584,13.32-20.009,13.32-32.144c0-12.15-4.736-23.576-13.32-32.175
		c-0.267-0.263-0.363-0.623-0.607-0.903l-21.512,21.512c0.252,0.265,0.429,0.577,0.688,0.837c5.919,5.919,5.919,15.525,0,21.43
		c-5.919,5.919-15.51,5.919-21.43,0c-0.27-0.27-0.632-0.363-0.917-0.607L95.397,416.13c0.252,0.29,0.348,0.659,0.621,0.935
		c8.88,8.85,20.513,13.26,32.144,13.26S151.459,425.899,160.309,417.049z"/>
</g>
<path style="fill:#FEA832;" d="M105.965,511.559c-27.142,0-54.315-10.331-74.975-31.005
	c-44.84-44.856-41.021-120.247,11.459-159.921L190.9,469.086C169.54,497.41,137.732,511.559,105.965,511.559z"/>
<path style="fill:#FE9923;" d="M116.673,394.857l-85.689,85.689c0,0,0.005,0.005,0.007,0.007
	c20.66,20.675,47.833,31.005,74.975,31.005c31.767,0,63.575-14.15,84.936-42.475L116.673,394.857z"/>
<path style="fill:#FEA832;" d="M321.183,42.086c37.521-51.348,116.098-55.233,159.804-11.543c41.35,41.335,41.35,108.614,0,149.95
	l-10.688,10.688C467.265,188.147,311.226,32.13,321.183,42.086z"/>
<path style="fill:#FE9923;" d="M470.298,191.18l10.689-10.687c41.35-41.335,41.35-108.614,0-149.95L395.32,116.21
	C432.045,152.928,468.84,189.722,470.298,191.18z"/>
<g>
</g>
<g>
</g>
<g>
</g>
<g>
</g>
<g>
</g>
<g>
</g>
<g>
</g>
<g>
</g>
<g>
</g>
<g>
</g>
<g>
</g>
<g>
</g>
<g>
</g>
<g>
</g>
<g>
</g>
</svg>
