<?xml version="1.0" encoding="iso-8859-1"?>
<!-- Generator: Adobe Illustrator 19.0.0, SVG Export Plug-In . SVG Version: 6.00 Build 0)  -->
<svg version="1.1" id="Capa_1" xmlns="http://www.w3.org/2000/svg" xmlns:xlink="http://www.w3.org/1999/xlink" x="0px" y="0px"
	 viewBox="0 0 201.387 201.387" style="enable-background:new 0 0 201.387 201.387;" xml:space="preserve">
<rect x="30.72" y="68.267" style="fill:#FBAD4A;" width="139.947" height="129.707"/>
<path d="M170.667,201.387H30.72c-1.884,0-3.413-1.529-3.413-3.413V68.267c0-1.884,1.529-3.413,3.413-3.413h139.947
	c1.884,0,3.413,1.529,3.413,3.413v129.707C174.08,199.857,172.551,201.387,170.667,201.387z M34.133,194.56h133.12V71.68H34.133
	V194.56z"/>
<polygon style="fill:#2A8EE6;" points="170.667,68.267 30.72,68.267 37.547,37.547 163.84,37.547 "/>
<path d="M170.667,71.68H30.72c-1.034,0-2.016-0.469-2.662-1.278c-0.647-0.807-0.894-1.865-0.669-2.876l6.827-30.72
	c0.346-1.562,1.732-2.673,3.331-2.673H163.84c1.601,0,2.985,1.111,3.331,2.673l6.827,30.72c0.225,1.01-0.022,2.068-0.669,2.876
	C172.682,71.211,171.701,71.68,170.667,71.68z M34.975,64.853h131.437l-5.309-23.893H40.286L34.975,64.853z"/>
<path style="fill:#ED5481;" d="M102.4,169.605c15.188,0,27.5-12.312,27.5-27.5c0-10.8-16.333-43.658-16.333-36.345
	c0,7.313-2.72,10.923-4.647,9.769c-11.947-7.158-4.207-19.956-6.519-19.956c-15.188,0-27.5,31.343-27.5,46.531
	C74.9,157.292,87.212,169.605,102.4,169.605z"/>
<path d="M102.4,173.018c-17.046,0-30.913-13.868-30.913-30.913c0-8.39,3.388-20.654,8.429-30.515
	c6.405-12.53,14.389-19.43,22.484-19.43c1.138,0,2.203,0.492,2.924,1.347c1.312,1.558,0.993,3.395,0.625,5.519
	c-0.811,4.671-1.138,9.153,3.289,12.595c0.43-1.044,0.918-2.929,0.918-5.862c0-0.838,0.131-1.545,0.399-2.162
	c0.62-1.42,1.946-2.304,3.458-2.304c1.642,0,4.391,0,12.039,17.065c2.183,4.871,7.262,16.935,7.262,23.745
	C133.313,159.15,119.446,173.018,102.4,173.018z M98.915,99.772c-10.552,4.644-20.601,28.749-20.601,42.334
	c0,13.281,10.805,24.086,24.086,24.086s24.086-10.805,24.086-24.086c0-6.117-6.163-20.797-10.54-28.979
	c-0.826,2.54-2.12,4.408-3.784,5.35c-1.597,0.906-3.465,0.898-4.997-0.019C98.068,113.009,98.231,104.665,98.915,99.772z"/>
<rect x="47.787" y="27.307" style="fill:#997843;" width="13.653" height="40.96"/>
<path d="M61.44,71.68H47.787c-1.884,0-3.413-1.529-3.413-3.413v-40.96c0-1.884,1.529-3.413,3.413-3.413H61.44
	c1.884,0,3.413,1.529,3.413,3.413v40.96C64.853,70.151,63.324,71.68,61.44,71.68z M51.2,64.853h6.827V30.72H51.2V64.853z"/>
<path style="fill:#595959;" d="M54.613,30.72L54.613,30.72c-5.656,0-10.24-4.584-10.24-10.24v-6.827
	c0-5.656,4.584-10.24,10.24-10.24l0,0c5.656,0,10.24,4.584,10.24,10.24v6.827C64.853,26.136,60.269,30.72,54.613,30.72z"/>
<path d="M54.613,34.133c-7.528,0-13.653-6.125-13.653-13.653v-6.827C40.96,6.125,47.085,0,54.613,0s13.653,6.125,13.653,13.653
	v6.827C68.267,28.008,62.141,34.133,54.613,34.133z M54.613,6.827c-3.765,0-6.827,3.062-6.827,6.827v6.827
	c0,3.765,3.062,6.827,6.827,6.827s6.827-3.062,6.827-6.827v-6.827C61.44,9.888,58.378,6.827,54.613,6.827z"/>
<rect x="78.507" y="27.307" style="fill:#997843;" width="13.653" height="40.96"/>
<path d="M92.16,71.68H78.507c-1.884,0-3.413-1.529-3.413-3.413v-40.96c0-1.884,1.529-3.413,3.413-3.413H92.16
	c1.884,0,3.413,1.529,3.413,3.413v40.96C95.573,70.151,94.044,71.68,92.16,71.68z M81.92,64.853h6.827V30.72H81.92V64.853z"/>
<path style="fill:#595959;" d="M85.333,30.72L85.333,30.72c-5.656,0-10.24-4.584-10.24-10.24v-6.827
	c0-5.656,4.584-10.24,10.24-10.24l0,0c5.656,0,10.24,4.584,10.24,10.24v6.827C95.573,26.136,90.989,30.72,85.333,30.72z"/>
<path d="M85.333,34.133c-7.528,0-13.653-6.125-13.653-13.653v-6.827C71.68,6.125,77.805,0,85.333,0s13.653,6.125,13.653,13.653
	v6.827C98.987,28.008,92.861,34.133,85.333,34.133z M85.333,6.827c-3.765,0-6.827,3.062-6.827,6.827v6.827
	c0,3.765,3.062,6.827,6.827,6.827c3.765,0,6.827-3.062,6.827-6.827v-6.827C92.16,9.888,89.098,6.827,85.333,6.827z"/>
<rect x="109.227" y="27.307" style="fill:#997843;" width="13.653" height="40.96"/>
<path d="M122.88,71.68h-13.653c-1.884,0-3.413-1.529-3.413-3.413v-40.96c0-1.884,1.529-3.413,3.413-3.413h13.653
	c1.884,0,3.413,1.529,3.413,3.413v40.96C126.293,70.151,124.764,71.68,122.88,71.68z M112.64,64.853h6.827V30.72h-6.827V64.853z"/>
<path style="fill:#595959;" d="M116.053,30.72L116.053,30.72c-5.656,0-10.24-4.584-10.24-10.24v-6.827
	c0-5.656,4.584-10.24,10.24-10.24l0,0c5.656,0,10.24,4.584,10.24,10.24v6.827C126.293,26.136,121.709,30.72,116.053,30.72z"/>
<path d="M116.053,34.133c-7.528,0-13.653-6.125-13.653-13.653v-6.827C102.4,6.125,108.525,0,116.053,0s13.653,6.125,13.653,13.653
	v6.827C129.707,28.008,123.581,34.133,116.053,34.133z M116.053,6.827c-3.765,0-6.827,3.062-6.827,6.827v6.827
	c0,3.765,3.062,6.827,6.827,6.827c3.765,0,6.827-3.062,6.827-6.827v-6.827C122.88,9.888,119.818,6.827,116.053,6.827z"/>
<rect x="139.947" y="27.307" style="fill:#997843;" width="13.653" height="40.96"/>
<path d="M153.6,71.68h-13.653c-1.884,0-3.413-1.529-3.413-3.413v-40.96c0-1.884,1.529-3.413,3.413-3.413H153.6
	c1.884,0,3.413,1.529,3.413,3.413v40.96C157.013,70.151,155.484,71.68,153.6,71.68z M143.36,64.853h6.827V30.72h-6.827V64.853z"/>
<path style="fill:#595959;" d="M146.773,30.72L146.773,30.72c-5.656,0-10.24-4.584-10.24-10.24v-6.827
	c0-5.656,4.584-10.24,10.24-10.24l0,0c5.656,0,10.24,4.584,10.24,10.24v6.827C157.013,26.136,152.429,30.72,146.773,30.72z"/>
<path d="M146.773,34.133c-7.528,0-13.653-6.125-13.653-13.653v-6.827C133.12,6.125,139.245,0,146.773,0
	c7.528,0,13.653,6.125,13.653,13.653v6.827C160.427,28.008,154.301,34.133,146.773,34.133z M146.773,6.827
	c-3.765,0-6.827,3.062-6.827,6.827v6.827c0,3.765,3.062,6.827,6.827,6.827c3.765,0,6.827-3.062,6.827-6.827v-6.827
	C153.6,9.888,150.538,6.827,146.773,6.827z"/>
<g>
</g>
<g>
</g>
<g>
</g>
<g>
</g>
<g>
</g>
<g>
</g>
<g>
</g>
<g>
</g>
<g>
</g>
<g>
</g>
<g>
</g>
<g>
</g>
<g>
</g>
<g>
</g>
<g>
</g>
</svg>
